# Blender v2.83.1 OBJ File: ''
# www.blender.org
o Cubo_01_Cube
v 1.000000 1.000000 0.416055
v 1.000000 -1.000000 0.416055
v 1.000000 1.000000 2.416055
v 1.000000 -1.000000 2.416055
v -1.000000 1.000000 0.416055
v -1.000000 -1.000000 0.416055
v -1.000000 1.000000 2.416055
v -1.000000 -1.000000 2.416055
vn 0.0000 1.0000 0.0000
vn 0.0000 0.0000 1.0000
vn -1.0000 0.0000 0.0000
vn 0.0000 -1.0000 0.0000
vn 1.0000 0.0000 0.0000
vn 0.0000 0.0000 -1.0000
s off
f 5//1 3//1 1//1
f 3//2 8//2 4//2
f 7//3 6//3 8//3
f 2//4 8//4 6//4
f 1//5 4//5 2//5
f 5//6 2//6 6//6
f 5//1 7//1 3//1
f 3//2 7//2 8//2
f 7//3 5//3 6//3
f 2//4 4//4 8//4
f 1//5 3//5 4//5
f 5//6 1//6 2//6
o Cubo_02_Cube.001
v 1.000000 1.000000 -2.392551
v 1.000000 -1.000000 -2.392551
v 1.000000 1.000000 -0.392552
v 1.000000 -1.000000 -0.392552
v -1.000000 1.000000 -2.392551
v -1.000000 -1.000000 -2.392551
v -1.000000 1.000000 -0.392552
v -1.000000 -1.000000 -0.392552
vn 0.0000 1.0000 0.0000
vn 0.0000 0.0000 1.0000
vn -1.0000 0.0000 0.0000
vn 0.0000 -1.0000 0.0000
vn 1.0000 0.0000 0.0000
vn 0.0000 0.0000 -1.0000
s off
f 13//7 11//7 9//7
f 11//8 16//8 12//8
f 15//9 14//9 16//9
f 10//10 16//10 14//10
f 9//11 12//11 10//11
f 13//12 10//12 14//12
f 13//7 15//7 11//7
f 11//8 15//8 16//8
f 15//9 13//9 14//9
f 10//10 12//10 16//10
f 9//11 11//11 12//11
f 13//12 9//12 10//12
