# Blender v2.83.1 OBJ File: ''
# www.blender.org
o Cubo_Filho_Cube
v 0.074001 3.962783 -0.071295
v 1.000000 1.962783 -0.997294
v 0.074001 3.962783 0.076707
v 1.000000 1.962783 1.002706
v -0.074001 3.962783 -0.071295
v -1.000000 1.962783 -0.997294
v -0.074001 3.962783 0.076707
v -1.000000 1.962783 1.002706
vn 0.0000 1.0000 0.0000
vn 0.0000 0.4202 0.9075
vn -0.9075 0.4202 0.0000
vn 0.0000 -1.0000 0.0000
vn 0.9075 0.4202 0.0000
vn 0.0000 0.4202 -0.9075
s off
f 5//1 3//1 1//1
f 3//2 8//2 4//2
f 7//3 6//3 8//3
f 2//4 8//4 6//4
f 1//5 4//5 2//5
f 5//6 2//6 6//6
f 5//1 7//1 3//1
f 3//2 7//2 8//2
f 7//3 5//3 6//3
f 2//4 4//4 8//4
f 1//5 3//5 4//5
f 5//6 1//6 2//6
o Esfera_Pai_Sphere
v -0.969628 0.001486 0.952785
v -0.510827 2.001486 0.493985
v -0.969628 0.001486 -1.047215
v -0.510827 2.001486 -0.588414
v 1.030372 0.001486 0.952785
v 0.571572 2.001486 0.493985
v 1.030372 0.001486 -1.047215
v 0.571572 2.001486 -0.588414
v -0.890466 1.518623 0.873624
v -0.890466 1.518623 -0.968053
v 0.951211 1.518623 -0.968053
v 0.951211 1.518623 0.873624
v -1.068920 0.740707 -1.146507
v 1.129665 0.740707 -1.146507
v 1.129665 0.740707 1.052078
v -1.068920 0.740707 1.052078
vn -0.7861 0.6181 0.0000
vn 0.0000 0.6181 -0.7861
vn 0.7861 0.6181 0.0000
vn 0.0000 0.6181 0.7861
vn 0.0000 -1.0000 0.0000
vn 0.0000 1.0000 0.0000
vn 0.0000 0.2236 0.9747
vn 0.9747 0.2236 0.0000
vn 0.0000 0.2236 -0.9747
vn -0.9747 0.2236 0.0000
vn -0.9911 -0.1331 0.0000
vn 0.0000 -0.1331 -0.9911
vn 0.9911 -0.1331 0.0000
vn 0.0000 -0.1331 0.9911
s off
f 10//7 18//7 17//7
f 12//8 19//8 18//8
f 16//9 20//9 19//9
f 14//10 17//10 20//10
f 15//11 9//11 11//11
f 12//12 14//12 16//12
f 20//13 24//13 23//13
f 19//14 23//14 22//14
f 21//15 19//15 22//15
f 24//16 18//16 21//16
f 24//17 11//17 9//17
f 21//18 15//18 11//18
f 22//19 13//19 15//19
f 23//20 9//20 13//20
f 10//7 12//7 18//7
f 12//8 16//8 19//8
f 16//9 14//9 20//9
f 14//10 10//10 17//10
f 15//11 13//11 9//11
f 12//12 10//12 14//12
f 20//13 17//13 24//13
f 19//14 20//14 23//14
f 21//15 18//15 19//15
f 24//16 17//16 18//16
f 24//17 21//17 11//17
f 21//18 22//18 15//18
f 22//19 23//19 13//19
f 23//20 24//20 9//20
