# Blender v2.83.1 OBJ File: ''
# www.blender.org
o Fonte_Cube.001
v 1.000000 1.000000 -1.041549
v 1.000000 -1.000000 -1.041549
v 1.000000 1.000000 0.958451
v 1.000000 -1.000000 0.958451
v -1.000000 1.000000 -1.041549
v -1.000000 -1.000000 -1.041549
v -1.000000 1.000000 0.958451
v -1.000000 -1.000000 0.958451
v -1.000000 -1.000000 0.292019
v 1.000000 1.000000 0.292019
v -1.000000 1.000000 0.292019
v 1.000000 -1.000000 0.292019
v -1.000000 1.000000 -0.302148
v 1.000000 -1.000000 -0.302148
v -1.000000 -1.000000 -0.302148
v 1.000000 1.000000 -0.302148
v 0.333333 -1.000000 -1.041549
v -0.333333 -1.000000 -1.041549
v 0.333333 1.000000 0.958451
v -0.333333 1.000000 0.958451
v -0.333333 -1.000000 0.958451
v 0.333333 -1.000000 0.958451
v -0.333333 1.000000 -1.041549
v 0.333333 1.000000 -1.041549
v 0.333333 -1.000000 0.292019
v -0.333333 -1.000000 0.292019
v -0.333333 1.000000 0.292019
v 0.333333 1.000000 0.292019
v -0.333333 1.000000 -0.302148
v 0.333333 1.000000 -0.302148
v 0.333333 -1.000000 -0.302148
v -0.333333 -1.000000 -0.302148
v -0.333333 2.053549 0.292019
v 0.333333 2.053549 0.292019
v -0.333333 2.053549 -0.302148
v 0.333333 2.053549 -0.302148
v -1.382211 2.451003 1.226831
v 1.382211 2.451003 1.226831
v -1.382211 2.451003 -1.236961
v 1.382211 2.451003 -1.236961
v -0.293542 2.616561 0.256555
v 0.293542 2.616561 0.256555
v -0.293542 2.616561 -0.266685
v 0.293542 2.616561 -0.266685
v -0.293542 2.839148 0.256555
v 0.293542 2.839148 0.256555
v -0.293542 2.839148 -0.266685
v 0.293542 2.839148 -0.266685
v -0.293542 2.616561 -2.490327
v 0.293542 2.616561 -2.490327
v -0.293542 2.839148 -2.250591
v 0.293542 2.839148 -2.250591
v 0.293542 2.616561 -1.948520
v 0.293542 2.839148 -1.948520
v -0.293542 2.616561 -1.948520
v -0.293542 2.839148 -1.948520
v -0.100529 1.369204 -2.062141
v 0.100529 1.369204 -2.062141
v 0.100529 1.475415 -1.921160
v -0.100529 1.475415 -1.921160
v 1.000000 -0.697479 -1.041549
v -1.000000 -0.697479 0.958451
v 1.000000 -0.697479 0.958451
v -1.000000 -0.697479 -1.041549
v 1.000000 -0.697479 0.292019
v -1.000000 -0.697479 0.292019
v 1.000000 -0.697479 -0.302148
v -1.000000 -0.697479 -0.302148
v -0.333333 -0.697479 -1.041549
v 0.333333 -0.697479 -1.041549
v 0.333333 -0.697479 0.958451
v -0.333333 -0.697479 0.958451
v 3.334945 -0.947690 -3.404892
v 3.334945 -0.947690 3.264999
v -3.334945 -0.947690 -3.404892
v -3.334945 -0.947690 3.264999
v -3.334945 -0.947690 1.042485
v 3.334945 -0.947690 1.042485
v 3.334945 -0.947690 -0.939029
v -3.334945 -0.947690 -0.939029
v 1.111648 -0.947690 -3.404892
v -1.111648 -0.947690 -3.404892
v -1.111648 -0.947690 3.264999
v 1.111648 -0.947690 3.264999
v 3.334945 -0.749789 -3.404892
v -3.334945 -0.749789 3.264999
v 3.334945 -0.749789 3.264999
v -3.334945 -0.749789 -3.404892
v 3.334945 -0.749789 1.042485
v -3.334945 -0.749789 1.042485
v 3.334945 -0.749789 -0.939029
v -3.334945 -0.749789 -0.939029
v -1.111648 -0.749789 -3.404892
v 1.111648 -0.749789 -3.404892
v 1.111648 -0.749789 3.264999
v -1.111648 -0.749789 3.264999
v 3.055031 -0.743518 2.988490
v 1.018344 -0.743518 -3.121574
v 3.055031 -0.743518 -3.121574
v 1.018344 -0.743518 2.988490
v -1.018344 -0.743518 2.988490
v 3.055031 -0.743518 -0.862679
v 3.055031 -0.743518 0.952519
v -1.018344 -0.743518 -3.121574
v -3.055031 -0.743518 -3.121574
v -3.055031 -0.743518 -0.862679
v -3.055031 -0.743518 2.988490
v -3.055031 -0.743518 0.952519
v 3.334945 0.029616 -3.404786
v -3.334945 0.029616 3.265105
v 3.334945 0.029616 3.265105
v -3.334945 0.029616 -3.404786
v 3.334945 0.029616 1.042591
v -3.334945 0.029616 1.042591
v 3.334945 0.029616 -0.938922
v -3.334945 0.029616 -0.938923
v -1.111648 0.029616 -3.404786
v 1.111648 0.029616 -3.404786
v 1.111648 0.029616 3.265105
v -1.111648 0.029616 3.265105
v 3.055031 0.035887 2.988596
v 1.018344 0.035887 -3.121468
v 3.055031 0.035887 -3.121468
v 1.018344 0.035887 2.988596
v -1.018344 0.035887 2.988596
v 3.055031 0.035887 -0.862573
v 3.055031 0.035887 0.952625
v -1.018344 0.035887 -3.121468
v -3.055031 0.035887 -3.121468
v -3.055031 0.035887 -0.862573
v -3.055031 0.035887 2.988596
v -3.055031 0.035887 0.952625
v 0.111111 -1.000000 -1.041549
v -0.111111 -1.000000 -1.041549
v 0.111111 1.000000 0.958451
v -0.111111 1.000000 0.958451
v -0.111111 -1.000000 0.958451
v 0.111111 -1.000000 0.958451
v -0.111111 1.000000 -1.041549
v 0.111111 1.000000 -1.041549
v 0.111111 -1.000000 0.292019
v -0.111111 -1.000000 0.292019
v -0.111111 1.000000 0.292019
v 0.111111 1.000000 0.292019
v -0.111111 1.000000 -0.302148
v 0.111111 1.000000 -0.302148
v 0.111111 -1.000000 -0.302148
v -0.111111 -1.000000 -0.302148
v -0.111111 2.053549 0.292019
v 0.111111 2.053549 0.292019
v -0.111111 2.053549 -0.302148
v 0.111111 2.053549 -0.302148
v -0.460737 2.451003 1.226831
v 0.460737 2.451003 1.226831
v -0.460737 2.451003 -1.236961
v 0.460737 2.451003 -1.236961
v -0.097847 2.616561 0.256555
v 0.097847 2.616561 0.256555
v -0.097847 2.616561 -0.266685
v 0.097847 2.616561 -0.266685
v -0.097847 2.839148 0.256555
v 0.097847 2.839148 0.256555
v -0.097847 2.839148 -0.266685
v 0.097847 2.839148 -0.266685
v -0.097847 2.616561 -2.490327
v 0.097847 2.616561 -2.490327
v -0.097847 2.839148 -2.250591
v 0.097847 2.839148 -2.250591
v 0.097847 2.839148 -1.948520
v -0.097847 2.839148 -1.948520
v -0.097847 2.616561 -1.948520
v 0.097847 2.616561 -1.948520
v -0.033510 1.369204 -2.062141
v 0.033510 1.369204 -2.062141
v -0.033510 1.475415 -1.921160
v 0.033510 1.475415 -1.921160
v 0.111111 -0.697479 0.958451
v -0.111111 -0.697479 0.958451
v -0.111111 -0.697479 -1.041549
v 0.111111 -0.697479 -1.041549
v 0.370549 -0.947690 -3.404892
v -0.370549 -0.947690 -3.404892
v -0.370549 -0.947690 3.264999
v 0.370549 -0.947690 3.264999
v 0.370549 -0.749789 3.264999
v -0.370549 -0.749789 3.264999
v -0.370549 -0.749789 -3.404892
v 0.370549 -0.749789 -3.404892
v -0.339448 -0.743518 2.988490
v 0.339448 -0.743518 2.988490
v 0.339448 -0.743518 -3.121574
v -0.339448 -0.743518 -3.121574
v 0.370549 0.029616 3.265105
v -0.370549 0.029616 3.265105
v -0.370549 0.029616 -3.404786
v 0.370549 0.029616 -3.404786
v -0.339448 0.035887 2.988596
v 0.339448 0.035887 2.988596
v 0.339448 0.035887 -3.121468
v -0.339448 0.035887 -3.121468
v 0.682959 2.186034 -0.613752
v 1.032585 2.318518 -0.925357
v 1.032585 2.318518 0.915227
v 0.682959 2.186034 0.603623
v -1.032585 2.318518 0.915227
v -0.682959 2.186034 0.603623
v -1.032585 2.318518 -0.925357
v -0.682959 2.186034 -0.613752
v 0.227653 2.186034 -0.613752
v 0.344195 2.318518 -0.925357
v -0.227653 2.186034 -0.613752
v -0.344195 2.318518 -0.925357
v -0.227653 2.186034 0.603623
v -0.344195 2.318518 0.915227
v 0.227653 2.186034 0.603623
v 0.344195 2.318518 0.915227
v -0.227653 1.651334 0.972335
v -0.344195 1.989714 0.984517
v 0.227653 1.651334 0.972335
v 0.344195 1.989714 0.984517
v -0.227653 1.639416 1.303401
v -0.344195 1.977796 1.315583
v 0.227653 1.639416 1.303401
v 0.344195 1.977796 1.315583
v 0.503787 1.556354 0.968916
v 0.620329 1.894734 0.981097
v 0.503787 1.544436 1.299982
v 0.620329 1.882815 1.312163
v -0.407066 1.589622 0.970113
v -0.523608 1.928002 0.982295
v -0.407066 1.577704 1.301179
v -0.523608 1.916084 1.313361
v -1.000000 -1.000000 0.125405
v 1.000000 1.000000 0.125405
v -1.000000 1.000000 0.125405
v 1.000000 -1.000000 0.125405
v 0.333333 1.000000 0.125405
v -0.333333 1.000000 0.125405
v -0.333333 -1.000000 0.125405
v 0.333333 -1.000000 0.125405
v 0.333333 2.053549 0.125405
v -0.333333 2.053549 0.125405
v 1.382211 2.451003 0.535946
v -1.382211 2.451003 0.535946
v 0.293542 2.616561 0.109831
v -0.293542 2.616561 0.109831
v 0.293542 2.839148 0.109831
v -0.293542 2.839148 0.109831
v -1.000000 -0.697479 0.125405
v 1.000000 -0.697479 0.125405
v -3.334945 -0.947690 0.486838
v 3.334945 -0.947690 0.486838
v -3.334945 -0.749789 0.486838
v 3.334945 -0.749789 0.486838
v -3.055031 -0.743518 0.443510
v 3.055031 -0.743518 0.443510
v -3.334945 0.029616 0.486944
v 3.334945 0.029616 0.486944
v -3.055031 0.035887 0.443616
v 3.055031 0.035887 0.443616
v 0.097847 2.839148 0.109831
v -0.097847 2.839148 0.109831
v -0.111111 -1.000000 0.125405
v 0.111111 -1.000000 0.125405
v -0.682959 2.186034 0.262252
v -1.032585 2.318518 0.399099
v 0.682959 2.186034 0.262252
v 1.032585 2.318518 0.399099
v -0.019388 3.021416 -0.115729
v 0.019388 3.021416 -0.115729
v 0.019388 3.021416 -0.041125
v -0.019388 3.021416 -0.041125
vn 0.0000 1.0000 0.0000
vn 0.0000 0.0000 1.0000
vn -1.0000 0.0000 0.0000
vn 0.0000 -1.0000 0.0000
vn 1.0000 0.0000 0.0000
vn 0.0000 0.0000 -1.0000
vn 0.3543 -0.9351 0.0000
vn 0.1503 0.9886 0.0000
vn 0.0000 -0.9203 0.3913
vn -0.3543 -0.9351 0.0000
vn -0.0000 -0.9203 -0.3913
vn 0.0000 0.9858 0.1682
vn -0.1503 0.9886 0.0000
vn 0.0000 0.9858 -0.1682
vn 0.0000 0.7328 -0.6804
vn 0.0000 -0.3247 -0.9458
vn 0.0000 -0.7987 0.6017
vn 0.0000 0.0240 0.9997
vn -0.9860 -0.1668 0.0000
vn 0.9884 -0.1215 0.0915
vn -0.0224 -0.9997 0.0000
vn 0.0000 0.0001 -1.0000
vn 0.0224 -0.9997 0.0000
vn 0.0000 -0.9997 0.0227
vn 0.0000 -0.0001 1.0000
vn 0.0000 -0.9998 -0.0221
vn -0.0224 0.9997 0.0000
vn 0.0224 0.9997 0.0000
vn 0.0000 0.9997 0.0227
vn 0.0000 0.9998 -0.0221
vn 0.8663 -0.2836 -0.4112
vn 0.0000 0.9994 0.0360
vn -0.9436 -0.0683 -0.3239
vn 0.0000 -0.5677 -0.8232
vn 0.0000 0.2062 0.9785
vn 0.0000 -0.0360 0.9994
vn -0.3255 -0.9449 -0.0340
vn 0.0000 -0.9994 -0.0360
vn -0.3255 0.9449 0.0340
vn 0.9456 -0.3252 -0.0117
vn 0.0000 0.0360 -0.9994
vn 0.3255 0.9449 0.0340
vn -0.9456 -0.3252 -0.0117
vn 0.3255 -0.9449 -0.0340
vn 0.9185 0.3954 0.0000
vn 0.0000 0.6379 0.7702
vn 0.0000 0.6379 -0.7702
vn -0.9185 0.3954 0.0000
vn -0.9884 -0.1215 0.0915
vn 0.9860 -0.1668 0.0000
vn 0.9436 -0.0683 -0.3239
vn -0.8663 -0.2836 -0.4112
s off
f 11//1 20//1 27//1
f 20//2 62//2 72//2
f 13//3 64//3 68//3
f 12//4 22//4 25//4
f 10//5 63//5 65//5
f 24//6 61//6 70//6
f 234//5 65//5 250//5
f 236//4 25//4 240//4
f 7//3 66//3 62//3
f 235//1 27//1 238//1
f 5//1 29//1 23//1
f 2//4 31//4 17//4
f 1//5 67//5 61//5
f 235//3 68//3 249//3
f 18//4 15//4 6//4
f 17//4 147//4 133//4
f 24//1 16//1 1//1
f 23//1 145//1 139//1
f 237//1 10//1 234//1
f 30//5 241//5 237//5
f 239//4 9//4 233//4
f 240//4 141//4 264//4
f 5//6 69//6 64//6
f 140//6 70//6 180//6
f 26//4 8//4 9//4
f 25//4 138//4 141//4
f 3//2 71//2 63//2
f 136//2 72//2 178//2
f 28//1 3//1 10//1
f 27//1 136//1 143//1
f 202//7 243//7 268//7
f 27//3 242//3 238//3
f 29//6 151//6 145//6
f 28//2 150//2 144//2
f 243//8 44//8 245//8
f 203//9 154//9 216//9
f 205//10 244//10 266//10
f 207//11 155//11 212//11
f 41//3 248//3 246//3
f 154//12 42//12 158//12
f 244//13 41//13 246//13
f 155//14 43//14 159//14
f 248//1 161//1 262//1
f 53//5 52//5 54//5
f 44//5 247//5 245//5
f 42//2 162//2 158//2
f 49//15 167//15 165//15
f 166//16 58//16 174//16
f 55//3 51//3 49//3
f 54//1 168//1 169//1
f 48//1 169//1 164//1
f 47//3 55//3 43//3
f 43//4 171//4 159//4
f 44//5 54//5 48//5
f 60//17 173//17 175//17
f 171//18 60//18 175//18
f 49//19 60//19 55//19
f 50//20 59//20 58//20
f 92//3 112//3 88//3
f 9//21 251//21 233//21
f 106//5 129//5 130//5
f 93//22 195//22 187//22
f 2//23 79//23 14//23
f 22//24 184//24 138//24
f 107//22 125//22 101//22
f 87//5 113//5 111//5
f 8//24 83//24 76//24
f 98//25 199//25 191//25
f 87//25 119//25 95//25
f 6//26 82//26 18//26
f 186//2 83//2 183//2
f 87//2 84//2 74//2
f 188//6 81//6 181//6
f 88//6 82//6 75//6
f 253//3 80//3 251//3
f 85//5 79//5 73//5
f 86//3 77//3 76//3
f 254//5 78//5 252//5
f 94//6 73//6 81//6
f 89//5 74//5 78//5
f 92//3 75//3 80//3
f 96//2 76//2 83//2
f 255//5 130//5 259//5
f 94//22 109//22 85//22
f 2//26 81//26 73//26
f 97//3 127//3 103//3
f 14//23 252//23 236//23
f 18//26 182//26 134//26
f 95//25 193//25 185//25
f 6//21 80//21 75//21
f 8//21 77//21 9//21
f 4//23 78//23 74//23
f 4//24 84//24 22//24
f 102//3 123//3 99//3
f 62//27 108//27 107//27
f 61//28 102//28 99//28
f 68//27 255//27 249//27
f 62//29 101//29 72//29
f 64//30 104//30 105//30
f 65//28 256//28 250//28
f 72//29 189//29 178//29
f 61//30 98//30 70//30
f 63//29 100//29 97//29
f 63//28 103//28 65//28
f 70//30 191//30 180//30
f 64//27 106//27 68//27
f 129//27 116//27 130//27
f 122//30 196//30 199//30
f 121//28 113//28 127//28
f 121//29 119//29 111//29
f 123//30 118//30 122//30
f 125//29 194//29 197//29
f 127//28 258//28 260//28
f 129//30 117//30 112//30
f 131//29 120//29 125//29
f 130//27 257//27 259//27
f 123//28 115//28 109//28
f 131//27 114//27 110//27
f 104//25 129//25 105//25
f 88//22 117//22 93//22
f 96//25 110//25 86//25
f 103//3 260//3 256//3
f 90//3 257//3 253//3
f 101//22 197//22 189//22
f 91//5 109//5 115//5
f 99//25 122//25 98//25
f 86//3 114//3 90//3
f 107//5 132//5 131//5
f 100//22 121//22 97//22
f 254//5 115//5 258//5
f 190//22 124//22 100//22
f 189//22 198//22 190//22
f 124//29 193//29 119//29
f 197//29 193//29 198//29
f 128//30 195//30 117//30
f 199//30 195//30 200//30
f 69//30 192//30 104//30
f 180//30 192//30 179//30
f 71//29 190//29 100//29
f 178//29 190//29 177//29
f 186//25 120//25 96//25
f 185//25 194//25 186//25
f 17//26 181//26 81//26
f 133//26 182//26 181//26
f 93//6 182//6 82//6
f 187//6 181//6 182//6
f 95//2 184//2 84//2
f 185//2 183//2 184//2
f 192//25 128//25 104//25
f 191//25 200//25 192//25
f 21//24 183//24 83//24
f 138//24 183//24 137//24
f 188//22 118//22 94//22
f 187//22 196//22 188//22
f 172//18 59//18 53//18
f 171//18 176//18 172//18
f 176//17 58//17 59//17
f 175//17 174//17 176//17
f 160//4 53//4 44//4
f 159//4 172//4 160//4
f 163//1 56//1 47//1
f 164//1 170//1 163//1
f 170//1 51//1 56//1
f 169//1 167//1 170//1
f 165//16 57//16 49//16
f 166//16 173//16 165//16
f 166//15 52//15 50//15
f 165//15 168//15 166//15
f 157//2 45//2 41//2
f 158//2 161//2 157//2
f 261//1 46//1 247//1
f 262//1 162//1 261//1
f 156//14 44//14 40//14
f 155//14 160//14 156//14
f 153//12 41//12 37//12
f 154//12 157//12 153//12
f 202//11 156//11 40//11
f 212//11 156//11 210//11
f 205//9 153//9 37//9
f 216//9 153//9 214//9
f 143//2 33//2 27//2
f 144//2 149//2 143//2
f 146//6 36//6 30//6
f 145//6 152//6 146//6
f 144//1 19//1 28//1
f 143//1 135//1 144//1
f 19//2 177//2 71//2
f 135//2 178//2 177//2
f 142//4 21//4 26//4
f 141//4 137//4 142//4
f 23//6 179//6 69//6
f 139//6 180//6 179//6
f 263//4 26//4 239//4
f 264//4 142//4 263//4
f 140//1 30//1 24//1
f 139//1 146//1 140//1
f 134//4 32//4 18//4
f 133//4 148//4 134//4
f 150//9 213//9 149//9
f 215//31 220//31 219//31
f 33//9 213//9 206//9
f 206//9 214//9 205//9
f 151//11 209//11 152//11
f 211//11 210//11 209//11
f 36//11 209//11 201//11
f 201//11 210//11 202//11
f 35//11 211//11 151//11
f 208//11 212//11 211//11
f 33//10 265//10 242//10
f 206//10 266//10 265//10
f 34//9 215//9 150//9
f 204//9 216//9 215//9
f 36//7 267//7 241//7
f 201//7 268//7 267//7
f 218//32 224//32 220//32
f 213//33 218//33 214//33
f 215//34 217//34 213//34
f 214//35 220//35 216//35
f 223//36 222//36 221//36
f 219//37 227//37 223//37
f 219//38 221//38 217//38
f 222//39 230//39 232//39
f 225//40 228//40 227//40
f 220//41 225//41 219//41
f 224//42 226//42 220//42
f 224//36 227//36 228//36
f 229//43 232//43 230//43
f 222//36 231//36 221//36
f 221//44 229//44 217//44
f 217//41 230//41 218//41
f 204//7 268//7 203//7
f 34//7 267//7 204//7
f 208//10 266//10 207//10
f 35//10 265//10 208//10
f 147//4 263//4 148//4
f 148//4 239//4 32//4
f 164//45 271//45 261//45
f 164//1 247//1 48//1
f 89//5 258//5 113//5
f 253//3 116//3 92//3
f 256//3 126//3 102//3
f 132//27 257//27 114//27
f 126//28 258//28 115//28
f 67//28 256//28 102//28
f 66//27 255//27 108//27
f 12//23 252//23 78//23
f 108//5 259//5 132//5
f 91//5 252//5 79//5
f 90//3 251//3 77//3
f 15//21 251//21 80//21
f 245//5 46//5 42//5
f 47//1 262//1 163//1
f 244//13 43//13 39//13
f 246//3 47//3 43//3
f 207//10 244//10 39//10
f 243//8 42//8 38//8
f 238//3 35//3 29//3
f 203//7 243//7 38//7
f 31//4 264//4 147//4
f 32//4 233//4 15//4
f 237//5 34//5 28//5
f 30//1 234//1 16//1
f 11//3 249//3 66//3
f 13//1 238//1 29//1
f 14//4 240//4 31//4
f 67//5 234//5 250//5
f 269//1 271//1 270//1
f 262//46 271//46 272//46
f 164//47 269//47 270//47
f 262//48 269//48 163//48
f 11//1 7//1 20//1
f 20//2 7//2 62//2
f 13//3 5//3 64//3
f 12//4 4//4 22//4
f 10//5 3//5 63//5
f 24//6 1//6 61//6
f 234//5 10//5 65//5
f 236//4 12//4 25//4
f 7//3 11//3 66//3
f 235//1 11//1 27//1
f 5//1 13//1 29//1
f 2//4 14//4 31//4
f 1//5 16//5 67//5
f 235//3 13//3 68//3
f 18//4 32//4 15//4
f 17//4 31//4 147//4
f 24//1 30//1 16//1
f 23//1 29//1 145//1
f 237//1 28//1 10//1
f 30//5 36//5 241//5
f 239//4 26//4 9//4
f 240//4 25//4 141//4
f 5//6 23//6 69//6
f 140//6 24//6 70//6
f 26//4 21//4 8//4
f 25//4 22//4 138//4
f 3//2 19//2 71//2
f 136//2 20//2 72//2
f 28//1 19//1 3//1
f 27//1 20//1 136//1
f 202//7 40//7 243//7
f 27//3 33//3 242//3
f 29//6 35//6 151//6
f 28//2 34//2 150//2
f 243//8 40//8 44//8
f 203//9 38//9 154//9
f 205//10 37//10 244//10
f 207//11 39//11 155//11
f 41//3 45//3 248//3
f 154//12 38//12 42//12
f 244//13 37//13 41//13
f 155//14 39//14 43//14
f 248//1 45//1 161//1
f 53//5 50//5 52//5
f 44//5 48//5 247//5
f 42//2 46//2 162//2
f 49//15 51//15 167//15
f 166//16 50//16 58//16
f 55//3 56//3 51//3
f 54//1 52//1 168//1
f 48//1 54//1 169//1
f 47//3 56//3 55//3
f 43//4 55//4 171//4
f 44//5 53//5 54//5
f 60//17 57//17 173//17
f 171//18 55//18 60//18
f 49//49 57//49 60//49
f 50//50 53//50 59//50
f 92//3 116//3 112//3
f 9//21 77//21 251//21
f 106//5 105//5 129//5
f 93//22 117//22 195//22
f 2//23 73//23 79//23
f 22//24 84//24 184//24
f 107//22 131//22 125//22
f 87//5 89//5 113//5
f 8//24 21//24 83//24
f 98//25 122//25 199//25
f 87//25 111//25 119//25
f 6//26 75//26 82//26
f 186//2 96//2 83//2
f 87//2 95//2 84//2
f 188//6 94//6 81//6
f 88//6 93//6 82//6
f 253//3 92//3 80//3
f 85//5 91//5 79//5
f 86//3 90//3 77//3
f 254//5 89//5 78//5
f 94//6 85//6 73//6
f 89//5 87//5 74//5
f 92//3 88//3 75//3
f 96//2 86//2 76//2
f 255//5 106//5 130//5
f 94//22 118//22 109//22
f 2//26 17//26 81//26
f 97//3 121//3 127//3
f 14//23 79//23 252//23
f 18//26 82//26 182//26
f 95//25 119//25 193//25
f 6//21 15//21 80//21
f 8//21 76//21 77//21
f 4//23 12//23 78//23
f 4//24 74//24 84//24
f 102//3 126//3 123//3
f 62//27 66//27 108//27
f 61//28 67//28 102//28
f 68//27 106//27 255//27
f 62//29 107//29 101//29
f 64//30 69//30 104//30
f 65//28 103//28 256//28
f 72//29 101//29 189//29
f 61//30 99//30 98//30
f 63//29 71//29 100//29
f 63//28 97//28 103//28
f 70//30 98//30 191//30
f 64//27 105//27 106//27
f 129//27 112//27 116//27
f 122//30 118//30 196//30
f 121//28 111//28 113//28
f 121//29 124//29 119//29
f 123//30 109//30 118//30
f 125//29 120//29 194//29
f 127//28 113//28 258//28
f 129//30 128//30 117//30
f 131//29 110//29 120//29
f 130//27 116//27 257//27
f 123//28 126//28 115//28
f 131//27 132//27 114//27
f 104//25 128//25 129//25
f 88//22 112//22 117//22
f 96//25 120//25 110//25
f 103//3 127//3 260//3
f 90//3 114//3 257//3
f 101//22 125//22 197//22
f 91//5 85//5 109//5
f 99//25 123//25 122//25
f 86//3 110//3 114//3
f 107//5 108//5 132//5
f 100//22 124//22 121//22
f 254//5 91//5 115//5
f 190//22 198//22 124//22
f 189//22 197//22 198//22
f 124//29 198//29 193//29
f 197//29 194//29 193//29
f 128//30 200//30 195//30
f 199//30 196//30 195//30
f 69//30 179//30 192//30
f 180//30 191//30 192//30
f 71//29 177//29 190//29
f 178//29 189//29 190//29
f 186//25 194//25 120//25
f 185//25 193//25 194//25
f 17//26 133//26 181//26
f 133//26 134//26 182//26
f 93//6 187//6 182//6
f 187//6 188//6 181//6
f 95//2 185//2 184//2
f 185//2 186//2 183//2
f 192//25 200//25 128//25
f 191//25 199//25 200//25
f 21//24 137//24 183//24
f 138//24 184//24 183//24
f 188//22 196//22 118//22
f 187//22 195//22 196//22
f 172//18 176//18 59//18
f 171//18 175//18 176//18
f 176//17 174//17 58//17
f 175//17 173//17 174//17
f 160//4 172//4 53//4
f 159//4 171//4 172//4
f 163//1 170//1 56//1
f 164//1 169//1 170//1
f 170//1 167//1 51//1
f 169//1 168//1 167//1
f 165//16 173//16 57//16
f 166//16 174//16 173//16
f 166//15 168//15 52//15
f 165//15 167//15 168//15
f 157//2 161//2 45//2
f 158//2 162//2 161//2
f 261//1 162//1 46//1
f 262//1 161//1 162//1
f 156//14 160//14 44//14
f 155//14 159//14 160//14
f 153//12 157//12 41//12
f 154//12 158//12 157//12
f 202//11 210//11 156//11
f 212//11 155//11 156//11
f 205//9 214//9 153//9
f 216//9 154//9 153//9
f 143//2 149//2 33//2
f 144//2 150//2 149//2
f 146//6 152//6 36//6
f 145//6 151//6 152//6
f 144//1 135//1 19//1
f 143//1 136//1 135//1
f 19//2 135//2 177//2
f 135//2 136//2 178//2
f 142//4 137//4 21//4
f 141//4 138//4 137//4
f 23//6 139//6 179//6
f 139//6 140//6 180//6
f 263//4 142//4 26//4
f 264//4 141//4 142//4
f 140//1 146//1 30//1
f 139//1 145//1 146//1
f 134//4 148//4 32//4
f 133//4 147//4 148//4
f 150//9 215//9 213//9
f 215//51 216//51 220//51
f 33//9 149//9 213//9
f 206//9 213//9 214//9
f 151//11 211//11 209//11
f 211//11 212//11 210//11
f 36//11 152//11 209//11
f 201//11 209//11 210//11
f 35//11 208//11 211//11
f 208//11 207//11 212//11
f 33//10 206//10 265//10
f 206//10 205//10 266//10
f 34//9 204//9 215//9
f 204//9 203//9 216//9
f 36//7 201//7 267//7
f 201//7 202//7 268//7
f 218//32 222//32 224//32
f 213//52 217//52 218//52
f 215//34 219//34 217//34
f 214//35 218//35 220//35
f 223//36 224//36 222//36
f 219//37 225//37 227//37
f 219//38 223//38 221//38
f 222//39 218//39 230//39
f 225//40 226//40 228//40
f 220//41 226//41 225//41
f 224//42 228//42 226//42
f 224//36 223//36 227//36
f 229//43 231//43 232//43
f 222//36 232//36 231//36
f 221//44 231//44 229//44
f 217//41 229//41 230//41
f 204//7 267//7 268//7
f 34//7 241//7 267//7
f 208//10 265//10 266//10
f 35//10 242//10 265//10
f 147//4 264//4 263//4
f 148//4 263//4 239//4
f 164//45 270//45 271//45
f 164//1 261//1 247//1
f 89//5 254//5 258//5
f 253//3 257//3 116//3
f 256//3 260//3 126//3
f 132//27 259//27 257//27
f 126//28 260//28 258//28
f 67//28 250//28 256//28
f 66//27 249//27 255//27
f 12//23 236//23 252//23
f 108//5 255//5 259//5
f 91//5 254//5 252//5
f 90//3 253//3 251//3
f 15//21 233//21 251//21
f 245//5 247//5 46//5
f 47//1 248//1 262//1
f 244//13 246//13 43//13
f 246//3 248//3 47//3
f 207//10 266//10 244//10
f 243//8 245//8 42//8
f 238//3 242//3 35//3
f 203//7 268//7 243//7
f 31//4 240//4 264//4
f 32//4 239//4 233//4
f 237//5 241//5 34//5
f 30//1 237//1 234//1
f 11//3 235//3 249//3
f 13//1 235//1 238//1
f 14//4 236//4 240//4
f 67//5 16//5 234//5
f 269//1 272//1 271//1
f 262//46 261//46 271//46
f 164//47 163//47 269//47
f 262//48 272//48 269//48
